<?xml version="1.0" standalone="no"?>
<svg xmlns:xlink="http://www.w3.org/1999/xlink" id="wave" style="transform:rotate(180deg); transition: 0.3s" viewBox="0 0 1440 490" version="1.1" xmlns="http://www.w3.org/2000/svg"><defs><linearGradient id="sw-gradient-0" x1="0" x2="0" y1="1" y2="0"><stop stop-color="rgba(255, 249, 234, 1)" offset="0%"/><stop stop-color="rgba(255, 179, 11, 1)" offset="100%"/></linearGradient></defs><path style="transform:translate(0, 0px); opacity:1" fill="url(#sw-gradient-0)" d="M0,441L26.7,375.7C53.3,310,107,180,160,106.2C213.3,33,267,16,320,65.3C373.3,114,427,229,480,302.2C533.3,376,587,408,640,416.5C693.3,425,747,408,800,383.8C853.3,359,907,327,960,326.7C1013.3,327,1067,359,1120,375.7C1173.3,392,1227,392,1280,343C1333.3,294,1387,196,1440,196C1493.3,196,1547,294,1600,277.7C1653.3,261,1707,131,1760,138.8C1813.3,147,1867,294,1920,359.3C1973.3,425,2027,408,2080,392C2133.3,376,2187,359,2240,359.3C2293.3,359,2347,376,2400,351.2C2453.3,327,2507,261,2560,245C2613.3,229,2667,261,2720,228.7C2773.3,196,2827,98,2880,73.5C2933.3,49,2987,98,3040,171.5C3093.3,245,3147,343,3200,318.5C3253.3,294,3307,147,3360,98C3413.3,49,3467,98,3520,122.5C3573.3,147,3627,147,3680,187.8C3733.3,229,3787,310,3813,351.2L3840,392L3840,490L3813.3,490C3786.7,490,3733,490,3680,490C3626.7,490,3573,490,3520,490C3466.7,490,3413,490,3360,490C3306.7,490,3253,490,3200,490C3146.7,490,3093,490,3040,490C2986.7,490,2933,490,2880,490C2826.7,490,2773,490,2720,490C2666.7,490,2613,490,2560,490C2506.7,490,2453,490,2400,490C2346.7,490,2293,490,2240,490C2186.7,490,2133,490,2080,490C2026.7,490,1973,490,1920,490C1866.7,490,1813,490,1760,490C1706.7,490,1653,490,1600,490C1546.7,490,1493,490,1440,490C1386.7,490,1333,490,1280,490C1226.7,490,1173,490,1120,490C1066.7,490,1013,490,960,490C906.7,490,853,490,800,490C746.7,490,693,490,640,490C586.7,490,533,490,480,490C426.7,490,373,490,320,490C266.7,490,213,490,160,490C106.7,490,53,490,27,490L0,490Z"/></svg>