<?xml version="1.0" standalone="no"?>
<svg xmlns:xlink="http://www.w3.org/1999/xlink" id="wave" style="transform:rotate(180deg); transition: 0.3s" viewBox="0 0 1440 400" version="1.1" xmlns="http://www.w3.org/2000/svg"><defs><linearGradient id="sw-gradient-0" x1="0" x2="0" y1="1" y2="0"><stop stop-color="rgba(238, 227, 199, 1)" offset="0%"/><stop stop-color="rgba(255, 249, 234, 1)" offset="100%"/></linearGradient></defs><path style="transform:translate(0, 0px); opacity:1" fill="url(#sw-gradient-0)" d="M0,120L80,153.3C160,187,320,253,480,253.3C640,253,800,187,960,193.3C1120,200,1280,280,1440,320C1600,360,1760,360,1920,340C2080,320,2240,280,2400,220C2560,160,2720,80,2880,66.7C3040,53,3200,107,3360,126.7C3520,147,3680,133,3840,113.3C4000,93,4160,67,4320,66.7C4480,67,4640,93,4800,133.3C4960,173,5120,227,5280,260C5440,293,5600,307,5760,320C5920,333,6080,347,6240,340C6400,333,6560,307,6720,293.3C6880,280,7040,280,7200,260C7360,240,7520,200,7680,186.7C7840,173,8000,187,8160,213.3C8320,240,8480,280,8640,286.7C8800,293,8960,267,9120,213.3C9280,160,9440,80,9600,86.7C9760,93,9920,187,10080,186.7C10240,187,10400,93,10560,86.7C10720,80,10880,160,11040,213.3C11200,267,11360,293,11440,306.7L11520,320L11520,400L11440,400C11360,400,11200,400,11040,400C10880,400,10720,400,10560,400C10400,400,10240,400,10080,400C9920,400,9760,400,9600,400C9440,400,9280,400,9120,400C8960,400,8800,400,8640,400C8480,400,8320,400,8160,400C8000,400,7840,400,7680,400C7520,400,7360,400,7200,400C7040,400,6880,400,6720,400C6560,400,6400,400,6240,400C6080,400,5920,400,5760,400C5600,400,5440,400,5280,400C5120,400,4960,400,4800,400C4640,400,4480,400,4320,400C4160,400,4000,400,3840,400C3680,400,3520,400,3360,400C3200,400,3040,400,2880,400C2720,400,2560,400,2400,400C2240,400,2080,400,1920,400C1760,400,1600,400,1440,400C1280,400,1120,400,960,400C800,400,640,400,480,400C320,400,160,400,80,400L0,400Z"/></svg>